<svg xmlns="http://www.w3.org/2000/svg" width="960.156" height="1358.746" viewBox="0 0 254.041 359.502"><g transform="translate(-12.361 57.043)"><rect width="47.662" height="7.267" x="211.891" y="-37.478" ry="1.71" style="fill:#f0f0f0;fill-opacity:1;stroke:#000;stroke-width:.73272038;stroke-linecap:round;stroke-linejoin:round;stroke-miterlimit:4;stroke-dasharray:none;stroke-opacity:1"/><rect width="47.662" height="7.267" x="-65.39" y="30.211" ry="1.71" style="fill:#f0f0f0;fill-opacity:1;stroke:#000;stroke-width:.73272038;stroke-linecap:round;stroke-linejoin:round;stroke-miterlimit:4;stroke-dasharray:none;stroke-opacity:1" transform="scale(-1)"/><path d="M79.213-51.482c-5.226 0-14.725 7.912-14.725 13.138v8.998c0 5.227 9.499 13.139 14.725 13.139h12.219c3.483 0 3.867-.812 5.5-3.606h83.679c1.634 2.794 2.017 3.606 5.5 3.606h12.219c5.226 0 14.725-7.912 14.725-13.139v-8.998c0-5.226-9.499-13.138-14.725-13.138h-12.22c-3.526 0-3.94.858-5.56 3.71l-41.759-.052-41.86-.052c-1.633-2.794-2.017-3.606-5.5-3.606z" style="fill:#fff6d5;fill-opacity:1;stroke:#000;stroke-width:.46234792;stroke-linecap:round;stroke-linejoin:round;stroke-miterlimit:4;stroke-dasharray:none;stroke-opacity:1"/></g></svg>